<svg xmlns="http://www.w3.org/2000/svg" width="48" height="48" viewBox="0 0 48.4 48.4"><path d="m3.7 45.7c-0.7-0.2-1.5-0.6-2.1-1.2-2.5-2.3-1.9-6.2 1.1-7.8 0.5-0.3 0.7-0.4 0.6-0.5-0.2-0.6-0.2-2.4-0.2-13.1l0-11.5 0.3-0.7C4 9.3 5.3 8.1 6.9 7.8 7.2 7.7 10.2 7.6 17 7.6h9.7l0.1-0.7c0.2-1.1 0.6-1.9 1.5-2.7 1.4-1.4 3.2-1.9 5-1.4 0.9 0.2 1.5 0.6 2.3 1.2 0.9 0.9 1.6 2 1.7 3.2l0.1 0.5h1.8c2 0 2.5 0.1 3.4 0.6 1.1 0.5 1.9 1.5 2.4 2.7l0.3 0.7 0 11.5c0 10.7 0 12.3-0.2 13.1 0 0.2 0.1 0.2 0.6 0.5 2.1 1 3.1 3.6 2.4 5.7-0.5 1.6-2 2.9-3.6 3.2-0.8 0.2-40.1 0.1-40.8 0zm40.6-1.5c2-0.5 3-2.7 2.2-4.5-0.3-0.7-0.8-1.2-1.5-1.6l-0.6-0.3-0.6 0.6c-0.7 0.6-1.3 1-2.1 1.2-0.8 0.2-34.2 0.2-35 0-0.8-0.2-1.4-0.6-2.1-1.2l-0.6-0.6-0.5 0.2c-1 0.5-1.8 1.5-1.9 2.6-0.1 1.1 0.5 2.4 1.4 3.1 1 0.7-0.5 0.6 21.2 0.6 17.4 0 19.7 0 20.2-0.1zM7.1 42.7c-0.3-0.1-0.5-0.5-0.5-0.8 0.1-0.6 0-0.6 4.8-0.6h4.4l0.2 0.2c0.4 0.4 0.2 1-0.3 1.2-0.4 0.1-8.3 0.1-8.7 0zm11.6 0c-0.3-0.1-0.5-0.5-0.5-0.7 0-0.1 0.1-0.3 0.2-0.5 0.2-0.2 0.3-0.2 0.6-0.2 0.3 0 0.4 0 0.6 0.2 0.1 0.1 0.2 0.4 0.2 0.5 0 0.5-0.6 0.9-1.1 0.7zm3.1 0c-0.3-0.1-0.5-0.6-0.4-1 0.1-0.3 0.3-0.5 0.7-0.5 0.6 0 0.9 0.5 0.7 1-0.2 0.4-0.6 0.6-1.1 0.4zm3.6 0c-0.5-0.2-0.6-0.9-0.2-1.2 0.2-0.2 0.7-0.2 8.1-0.2 7.4 0 7.9 0 8.1 0.2 0.3 0.3 0.4 0.7 0.1 1l-0.2 0.3-7.8 0c-6.2 0-7.9 0-8.1-0.1zm16.4-4.8c1-0.5 1.7-1.4 1.9-2.6 0.1-0.4 0.1-4.4 0.1-12L43.8 11.9 43.6 11.3c-0.2-0.6-0.8-1.3-1.3-1.6C41.6 9.3 41 9.2 39.1 9.2H37.4v9.4 9.4l1.3 0c1.6 0 1.9 0.1 2.2 0.6 0.2 0.4 0.3 1 0.1 1.4-0.2 0.3-3.2 4.2-3.5 4.4-0.6 0.5-1.3 0.5-1.8 0.1-0.4-0.3-3.3-4-3.5-4.4-0.3-0.6-0.1-1.3 0.4-1.7 0.2-0.1 0.5-0.2 1.7-0.2l1.5 0v-10.2c0-8.9 0-10.3-0.1-10.8C35.3 5 33.4 3.8 31.5 4.1 29.8 4.4 28.6 5.7 28.3 7.3l-0.1 0.3h2.8 2.8l0.2 0.2c0.3 0.3 0.3 0.7 0.1 1L33.9 9.1 20.5 9.2C6.1 9.2 6.9 9.2 6.1 9.7 5.6 10 5 10.7 4.8 11.3L4.6 11.9v11.8 11.8l0.2 0.5c0.4 0.9 1 1.6 1.9 1.9L7.2 38.2 24.3 38.1 41.3 38.1ZM16.6 32.4c-0.2-0.1-0.2-0.3-0.2-0.5 0-0.3 3.8-15.6 4.1-16.6 0.2-0.7 1.2-0.7 1.4 0 0.1 0.2-0.4 2.3-2 8.6-1.9 7.4-2.1 8.4-2.3 8.5-0.3 0.3-0.6 0.3-0.9 0zm-3.6-1.8c-0.2-0.1-1.4-1.3-2.8-2.7-2.9-2.9-3-3.1-3-4.2 0-1.2 0.1-1.3 3.1-4.4 2.5-2.5 2.7-2.7 3-2.7 0.5 0 0.8 0.3 0.8 0.7 0 0.3-0.1 0.5-2.6 3-1.4 1.4-2.7 2.7-2.7 2.8-0.1 0.3-0.1 0.8 0 1.1 0.1 0.1 1.2 1.4 2.6 2.7 1.4 1.4 2.5 2.6 2.6 2.7 0.4 0.7-0.4 1.3-1 0.9zm11.5 0.1c-0.3-0.1-0.5-0.4-0.4-0.9 0-0.1 1.1-1.3 2.7-2.8 2-2 2.7-2.7 2.7-3 0.2-0.7 0.1-0.8-2.7-3.5-1.4-1.4-2.6-2.7-2.7-2.8-0.1-0.2-0.1-0.4 0-0.5 0.1-0.3 0.3-0.5 0.7-0.5 0.3 0 0.6 0.3 2.9 2.6 1.4 1.4 2.7 2.8 2.9 3 0.5 0.8 0.6 2 0 2.9-0.3 0.5-5.4 5.6-5.7 5.7-0.1 0-0.3 0-0.4 0zM11.5 24.3c-0.6-0.6-0.1-1.6 0.7-1.4 0.3 0.1 0.5 0.4 0.5 0.8 0 0.6-0.8 1-1.2 0.6zm3 0c-0.3-0.3-0.3-0.9 0-1.2 0.3-0.3 0.6-0.3 1 0 0.2 0.2 0.3 0.3 0.3 0.6 0 0.7-0.8 1.1-1.2 0.6zm8.1 0c-0.5-0.4-0.2-1.4 0.4-1.4 0.3 0 0.7 0.3 0.8 0.6 0.2 0.7-0.6 1.3-1.2 0.8zm3 0c-0.6-0.6 0.1-1.7 0.8-1.3 0.3 0.2 0.5 0.4 0.5 0.7 0 0.4-0.4 0.8-0.8 0.8-0.2 0-0.4-0.1-0.5-0.2zm12.4 7.1 1.3-1.7-1.4 0c-0.8 0-2 0-2.7 0l-1.4 0 1.4 1.7c0.8 1 1.4 1.7 1.4 1.7 0 0 0.6-0.8 1.4-1.7z" stroke-width="0.09"/></svg>