<?xml version="1.0" encoding="iso-8859-1"?>
<!-- Generator: Adobe Illustrator 19.0.0, SVG Export Plug-In . SVG Version: 6.00 Build 0)  -->
<svg version="1.1" id="Capa_1" xmlns="http://www.w3.org/2000/svg" xmlns:xlink="http://www.w3.org/1999/xlink" x="0px" y="0px"
	 viewBox="0 0 60 60" style="enable-background:new 0 0 60 60;" xml:space="preserve">
<g>
	<g>
		<path d="M60,13c0-0.1,0-0.2-0.1-0.3v-0.1c-0.1-0.1-0.1-0.2-0.2-0.3l-12-12c-0.1-0.1-0.2-0.1-0.3-0.2h-0.1C47.2,0.1,47.1,0,47,0
			l0,0H1C0.4,0,0,0.4,0,1v9h2V2h44v11c0,0.6,0.4,1,1,1h11v18h2V13L60,13z M48,12V3.4l8.6,8.6H48z"/>
		<path d="M59,42h-2.8c-0.1-0.1-0.1-0.3-0.2-0.4l2-1.8c0.2-0.2,0.3-0.4,0.3-0.7s-0.1-0.5-0.3-0.7l-4.2-4.2c-0.4-0.4-1-0.4-1.4,0
			l-1.9,1.9c-0.2-0.1-0.3-0.1-0.4-0.2V33c0-0.6-0.4-1-1-1h-6c-0.6,0-1,0.4-1,1v2.7c-0.1,0.1-0.3,0.1-0.4,0.2L39.8,34
			c-0.4-0.4-1-0.4-1.4,0l-4.2,4.2c-0.2,0.2-0.3,0.4-0.3,0.7c0,0.3,0.1,0.5,0.3,0.7l1.9,1.9c-0.1,0.2-0.1,0.3-0.2,0.4H33
			c-0.6,0-1,0.4-1,1v6c0,0.6,0.4,1,1,1h2.8c0.1,0.1,0.1,0.3,0.2,0.4l-1.9,1.9c-0.2,0.2-0.3,0.4-0.3,0.7c0,0.3,0.1,0.5,0.3,0.7
			l4.2,4.2c0.4,0.4,1,0.4,1.4,0l1.9-1.9c0.2,0.1,0.3,0.1,0.4,0.2V59c0,0.6,0.4,1,1,1h6c0.6,0,1-0.4,1-1v-2.8
			c0.1-0.1,0.3-0.1,0.4-0.2l1.9,1.9c0.4,0.4,1,0.4,1.4,0l4.2-4.2c0.2-0.2,0.3-0.4,0.3-0.7s-0.1-0.5-0.3-0.7L56,50.4
			c0.1-0.1,0.1-0.3,0.2-0.4H59c0.6,0,1-0.4,1-1v-6C60,42.4,59.6,42,59,42z M58,48h-2.5c-0.5,0-0.9,0.4-1,0.8c0,0.2-0.4,1-0.5,1.2
			s-0.2,0.4-0.2,0.6c0,0.3,0.1,0.5,0.3,0.7l1.7,1.7L53,55.8l-1.7-1.7c-0.2-0.2-0.4-0.3-0.7-0.3c-0.3,0-0.4,0.1-0.6,0.2
			s-1,0.4-1.2,0.5c-0.5,0.1-0.8,0.5-0.8,1V58h-4v-2.5c0-0.3-0.1-0.5-0.3-0.7c-0.2-0.3-1.9-1-2.3-1c-0.3,0-0.5,0.1-0.7,0.3L39,55.8
			L36.2,53l1.7-1.7c0.2-0.2,0.3-0.4,0.3-0.7c0-0.2-0.1-0.4-0.2-0.6s-0.4-1-0.5-1.2c-0.1-0.5-0.5-0.8-1-0.8H34v-4h2.5
			c0.3,0,0.5-0.1,0.7-0.3c0.3-0.2,1-1.9,1-2.3c0-0.3-0.1-0.5-0.3-0.7L36.2,39l2.8-2.8l1.7,1.7c0.2,0.2,0.4,0.3,0.7,0.3
			c0.3,0,0.4-0.1,0.6-0.2s1-0.4,1.2-0.5c0.5-0.1,0.8-0.5,0.8-1V34h4v2.5c0,0.3,0.1,0.5,0.3,0.7c0.2,0.3,1.9,1,2.3,1
			c0.3,0,0.5-0.1,0.7-0.3l1.7-1.7l2.8,2.8l-1.7,1.7c-0.2,0.2-0.3,0.4-0.3,0.7c0,0.2,0.1,0.4,0.2,0.6s0.4,1,0.5,1.2
			c0.1,0.5,0.5,0.8,1,0.8H58V48z"/>
		<path d="M46,42c-2.2,0-4,1.8-4,4s1.8,4,4,4s4-1.8,4-4S48.2,42,46,42z M46,48c-1.1,0-2-0.9-2-2s0.9-2,2-2s2,0.9,2,2S47.1,48,46,48z
			"/>
		<path d="M24.9,25.5l-4-8c-0.3-0.7-1.5-0.7-1.8,0l-4,8c-0.2,0.2-0.2,0.5-0.1,0.8V60h2V27h2v33h2V27h2v33h2V26.1
			C25,25.9,25,25.7,24.9,25.5z M17.6,25l2.4-4.8l2.4,4.8H17.6z"/>
		<path d="M11,13H1c-0.6,0-1,0.4-1,1v46h2v-3h5v-2H2v-7h5v-2H2v-8h5v-2H2v-8h5v-2H2v-6h5v-2H2v-3h8v45h2V14C12,13.4,11.6,13,11,13z"
			/>
		<rect x="5" y="5" width="12" height="2"/>
		<rect x="19" y="5" width="4" height="2"/>
		<rect x="13" y="9" width="10" height="2"/>
		<rect x="35" y="17" width="20" height="2"/>
		<rect x="29" y="22" width="18" height="2"/>
		<rect x="29" y="27" width="26" height="2"/>
		<rect x="29" y="31" width="6" height="2"/>
		<rect x="49" y="22" width="6" height="2"/>
	</g>
</g>
<g>
</g>
<g>
</g>
<g>
</g>
<g>
</g>
<g>
</g>
<g>
</g>
<g>
</g>
<g>
</g>
<g>
</g>
<g>
</g>
<g>
</g>
<g>
</g>
<g>
</g>
<g>
</g>
<g>
</g>
</svg>
