<svg xmlns="http://www.w3.org/2000/svg"  viewBox="0 0 48.4 48.4">
<path d="m7.8 42.8c-0.7-0.2-1-0.5-1.3-1-0.3-0.4-0.3-0.5-0.3-2.2 0-1.9 0.1-2.9 0.4-3.8 0.6-1.8 2-3.3 3.7-3.8 0.3-0.1 1.8-0.3 3.4-0.6l2.9-0.4 0.3-0.3c0.4-0.4 0.6-1.1 0.7-2.4l0-1.1-0.6-0.8c-1.3-1.7-2.1-3.6-2.3-5.9l-0.1-1.1-0.6-0.7c-0.7-0.8-1.2-1.7-1.4-2.7-0.2-0.7-0.2-0.9-0.2-3.6 0-3.1 0-3.2 0.6-4.4 0.6-1.3 2.2-2.5 3.6-2.7 0.3 0 0.4-0.1 0.5-0.2 0.2-0.8 0.9-1.6 1.7-1.9 0.4-0.2 0.5-0.2 6.2-0.2 6.2 0 6.2 0 7.4 0.5 1.5 0.6 2.7 1.8 3.4 3.2 0.7 1.5 0.8 1.6 0.7 5.3 0 2.9 0 3.3-0.2 3.9-0.3 1-0.8 2.1-1.5 2.8l-0.6 0.7-0.1 1.1c-0.2 2.4-1 4.5-2.5 6.2l-0.4 0.5 0.1 1.1c0.1 1.3 0.3 2 0.7 2.4l0.3 0.3 2.9 0.4c1.6 0.2 3.1 0.5 3.4 0.6 1.7 0.5 3.1 2 3.7 3.8 0.3 0.9 0.4 1.9 0.4 3.8 0 1.6 0 1.7-0.3 2.1-0.1 0.3-0.4 0.6-0.6 0.7-0.8 0.6 0.2 0.6-17.3 0.6C9.3 43 8.2 42.9 7.8 42.8Zm32.9-1.6 0.3-0.3v-1.7c0-0.9 0-1.9-0.1-2.2-0.3-1.6-1.4-3-2.8-3.6-0.4-0.2-5.5-1-5.7-0.9-0.1 0-0.2 0.3-0.3 0.6-0.4 1.2-1.4 2.6-2.6 3.6-3 2.2-7.3 2.3-10.4 0.1-1.2-0.9-2.4-2.4-2.7-3.6-0.1-0.3-0.2-0.6-0.3-0.6-0.2-0.1-5.2 0.7-5.7 0.9-1.3 0.5-2.5 2-2.8 3.6-0.1 0.3-0.1 1.3-0.1 2.2 0 1.6 0 1.7 0.2 1.9 0.1 0.1 0.3 0.3 0.4 0.3 0.1 0 7.4 0.1 16.2 0.1l16 0zM26.1 36.8c1.4-0.4 2.7-1.1 3.5-2.1 0.6-0.6 1.2-1.9 1.3-2.5 0.1-0.3 0-0.4-0.2-0.7-0.5-0.5-0.9-1.5-1-2.7 0-0.3-0.1-0.5-0.1-0.5 0 0-0.2 0.1-0.5 0.3-0.8 0.5-1.7 0.9-2.7 1.1-1.3 0.3-3.1 0.3-4.3 0-1-0.2-1.9-0.6-2.7-1.1-0.3-0.2-0.5-0.3-0.5-0.3 0 0-0.1 0.2-0.1 0.5-0.2 1.2-0.5 2.2-1 2.7-0.2 0.3-0.3 0.3-0.2 0.7 0.1 0.6 0.8 1.8 1.3 2.5 1.1 1.2 2.6 2 4.4 2.2 0.5 0.1 2.2 0 2.7-0.2zm-1-8.2c3.6-0.4 6.4-3.2 7.3-7.1 0.1-0.6 0.2-1.4 0.2-4.1 0-3 0.1-3.5 0.2-3.6 0.2-0.3 0.7-0.3 1 0 0.2 0.2 0.2 0.3 0.2 1.7 0 1.5 0 1.5 0.2 1.2 0.3-0.4 0.5-1.1 0.6-1.7 0.2-1 0.1-5.6 0-6.4-0.4-2.1-2-3.7-4.1-4.2-0.6-0.1-1.4-0.1-6.1-0.1-5.3 0-5.4 0-5.7 0.2-0.4 0.3-0.7 0.8-0.7 1.2-0.1 0.6-0.3 0.8-1.2 0.9-1.8 0.3-3 1.5-3.3 3.2-0.1 0.7-0.1 4.4 0 5.1 0.1 0.7 0.3 1.3 0.6 1.7 0.2 0.3 0.2 0.2 0.2-1.1 0-0.7 0.1-1.5 0.2-1.7 0.4-1.2 1.2-2 2.5-2.5 0.3-0.1 1.5-0.1 7.2-0.2 7.3 0 7.1 0 7.4 0.4 0.1 0.2 0 0.7-0.2 0.8-0.1 0-3.2 0.1-7 0.1-6.3 0-6.9 0.1-7.2 0.2-0.5 0.2-1 0.7-1.2 1.2-0.2 0.4-0.2 0.6-0.2 2.9 0 3.6 0.2 5 0.9 6.7 1.2 2.6 3.8 4.6 6.5 4.9 0.9 0.1 1 0.1 1.8 0zM1.4 36.1C1 36 0.7 35.7 0.4 35.3c-0.3-0.3-0.3-0.4-0.3-1.7 0-1.5 0.1-2.2 0.5-3.1 0.4-0.9 1.3-1.7 2.2-1.9 0.3-0.1 1.3-0.3 2.2-0.4 1-0.1 1.8-0.3 1.9-0.4 0.2-0.2 0.4-0.6 0.4-1.3l0.1-0.6-0.4-0.5c-0.9-1-1.4-2.4-1.6-3.8-0.1-0.8-0.1-0.9-0.6-1.4-0.8-1-1-1.8-1-4 0-2.1 0.2-2.8 1-3.7 0.3-0.4 1.5-1.1 1.9-1.1 0.1 0 0.2-0.1 0.3-0.2 0.1-0.4 0.7-0.9 1.1-1.1 0.3-0.2 0.6-0.2 1.3-0.2 0.8 0 0.9 0 1.1 0.2 0.2 0.3 0.2 0.7 0 0.9-0.2 0.2-0.4 0.2-0.9 0.2-0.8 0-1 0.2-1.2 0.8-0.1 0.5-0.2 0.6-0.9 0.7-0.6 0.1-1 0.3-1.4 0.7-0.5 0.5-0.6 1-0.6 2.8 0 1.6 0 1.6 0.1 1.1 0.2-0.9 0.8-1.6 1.6-2 0.5-0.2 2.2-0.4 2.8-0.2 0.7 0.1 0.9 0.8 0.5 1.2-0.2 0.2-0.4 0.2-1.4 0.2-1.2 0-1.3 0-1.6 0.3-0.5 0.4-0.6 0.7-0.5 3.1 0 2 0.1 2.1 0.3 2.8 0.4 1 0.8 1.7 1.5 2.4 1.4 1.3 3.2 1.7 4.9 1.1 0.4-0.1 0.8-0.2 1-0.2 0.4 0 0.7 0.5 0.6 1-0.2 0.4-1.8 0.9-3 0.9-1 0-1.7-0.1-2.5-0.5-0.3-0.1-0.6-0.3-0.7-0.3 0 0-0.1 0.3-0.2 0.6-0.2 0.7-0.5 1.2-0.9 1.5-0.2 0.1-0.9 0.3-2.2 0.5-1.1 0.2-2.1 0.3-2.3 0.4-0.5 0.2-1.2 0.9-1.4 1.4-0.2 0.4-0.2 0.7-0.3 1.8 0 0.9 0 1.3 0.1 1.4 0.1 0.1 0.4 0.1 1.7 0.1h1.6l0.2 0.2c0.2 0.3 0.2 0.6 0 0.9-0.2 0.2-0.2 0.2-1.8 0.2-0.9 0-1.7 0-1.9-0.1zm42.2 0C43.3 35.9 43.2 35.4 43.5 35l0.2-0.2h1.5c1.1 0 1.6 0 1.7-0.1 0.2-0.1 0.2-0.3 0.1-1.4 0-1.1-0.1-1.4-0.3-1.8-0.3-0.6-1-1.3-1.4-1.4-0.2-0.1-1.2-0.2-2.3-0.4-1.3-0.2-2-0.3-2.2-0.5-0.4-0.3-0.8-0.8-0.9-1.5-0.1-0.3-0.2-0.6-0.2-0.6 0 0-0.3 0.1-0.7 0.3-1.2 0.5-2.6 0.7-3.9 0.3-0.8-0.2-1.5-0.5-1.6-0.8-0.2-0.5 0.1-1 0.6-1 0.1 0 0.6 0.1 1 0.2 0.6 0.2 0.9 0.2 1.6 0.2 1.3 0 2.4-0.4 3.4-1.4 0.7-0.7 1.1-1.3 1.4-2.3 0.2-0.7 0.3-0.9 0.3-2.8 0-2.4 0-2.7-0.5-3.1-0.3-0.3-0.4-0.3-1.6-0.3-1.1 0-1.3-0.1-1.4-0.2-0.4-0.4-0.2-1 0.5-1.2 0.7-0.1 2.3 0 2.8 0.2 0.8 0.4 1.4 1 1.6 2 0.1 0.5 0.1 0.4 0.1-1.7 0-1.4 0-2.4-0.1-2.6-0.2-0.6-0.6-1.1-1.1-1.4-0.5-0.3-0.5-0.3-2.1-0.3-1.4 0-1.6-0.1-1.8-0.2-0.3-0.2-0.3-0.6 0-0.9 0.2-0.2 0.2-0.2 1.9-0.2 1.9 0 2.2 0.1 3 0.7 0.6 0.4 1.1 1 1.4 1.7 0.2 0.5 0.2 0.7 0.2 2.9 0 3.2-0.1 3.9-1 5.1-0.4 0.5-0.5 0.6-0.6 1.4-0.2 1.5-0.8 2.8-1.6 3.8l-0.4 0.5 0.1 0.6c0.1 0.7 0.2 1.1 0.4 1.3 0.1 0.1 0.9 0.2 1.9 0.4 1 0.1 2 0.3 2.2 0.4 0.9 0.3 1.8 1.1 2.2 1.9 0.5 0.9 0.6 1.5 0.5 3.1l0 1.4-0.3 0.4c-0.6 0.7-0.7 0.7-2.6 0.8-0.9 0-1.7 0-1.9-0.1z" stroke-width="0.09"/>
</svg>